<svg width="860" height="166" viewBox="0 0 860 166" fill="none" xmlns="http://www.w3.org/2000/svg">
<path d="M132.212 18.7529C122.487 23.1734 113.155 38.1048 101.76 67.6728C98.2232 76.7102 94.4904 85.9441 93.4098 88.1052L91.3469 92.0345L92.1328 71.4057C93.0169 45.6687 92.9186 40.757 91.4452 38.9888C88.8911 35.9436 87.0247 37.5154 82.8989 46.1598C75.9244 60.5018 57.1619 92.6239 52.0538 98.9108C45.6687 106.769 41.4447 109.52 35.9437 109.52C33.5861 109.52 30.6391 108.832 29.3621 108.046C28.085 107.261 24.8434 102.349 22.1911 97.3391C16.5918 86.8282 14.5289 85.6494 14.0378 92.6239C13.4484 101.858 19.8335 113.056 27.8886 116.986C37.9083 121.799 47.3387 118.361 55.492 106.868C59.3231 101.563 69.1463 84.4706 79.9519 64.0382C82.113 60.0107 84.0777 57.3584 84.6671 57.7513C85.3547 58.1442 85.5512 60.7965 85.1583 64.9223C81.0325 111.779 81.1307 121.013 85.6494 121.013C88.3999 121.013 89.677 118.361 97.3391 96.455C113.548 50.2856 122.29 33.1931 135.552 21.5034C137.222 20.0299 138.4 18.36 138.106 17.8688C137.32 16.5918 136.829 16.5918 132.212 18.7529Z" fill="black"/>
<path d="M495.673 39.3817C479.956 44.0968 452.352 55.5901 447.539 59.5194C444.789 61.7787 444.69 62.0734 446.262 63.6452C447.736 65.1186 449.013 64.8239 466.498 58.2424C487.029 50.5802 491.253 49.4014 491.253 51.2678C491.253 51.9555 488.6 57.9477 485.26 64.7257C478.482 78.5765 478.286 78.6748 464.042 84.274C455.987 87.4175 452.844 89.7751 454.415 91.3468C454.71 91.6415 458.345 91.445 462.569 90.8556C466.694 90.2662 470.329 89.8733 470.526 90.168C470.722 90.3645 470.329 91.8379 469.641 93.5079C465.123 104.412 435.555 117.771 426.124 113.056C424.946 112.467 422.097 109.913 419.739 107.457C415.712 102.938 415.515 102.938 414.042 104.805C411.881 107.653 413.059 113.056 416.596 116.298C420.329 119.736 426.223 121.308 433.099 120.522C453.531 118.263 465.516 110.993 478.286 92.9185C483.787 85.1581 485.162 83.7829 490.565 81.2288C497.441 77.8889 498.424 75.6295 493.316 74.8437C491.449 74.549 489.779 73.8614 489.583 73.3702C489.092 71.7985 497.441 55.1971 500.487 51.5625C501.96 49.7943 504.612 47.4368 506.479 46.3562C512.078 42.918 510.408 37.417 503.826 37.6135C502.549 37.6135 498.915 38.3993 495.673 39.3817Z" fill="black"/>
<path d="M147.928 46.3564C147.142 47.7317 149.107 53.7239 150.875 55.1974C152.84 56.7691 156.278 54.7062 156.278 51.9557C156.278 48.714 153.527 45.3741 150.875 45.3741C149.598 45.3741 148.223 45.8653 147.928 46.3564Z" fill="black"/>
<path d="M526.32 46.0618C524.454 47.9282 526.026 53.8221 528.776 55.2956C531.33 56.6709 533.491 54.8045 533.491 51.2681C533.491 47.3388 528.58 43.7042 526.32 46.0618Z" fill="black"/>
<path d="M581.627 48.8122C581.627 52.6433 584.672 56.4744 587.324 55.9832C588.503 55.7867 589.093 54.5097 589.289 52.0539C589.486 49.3034 589.093 48.1246 587.324 46.9458C583.493 44.2935 581.627 44.8829 581.627 48.8122Z" fill="black"/>
<path d="M751.568 47.8297C751.568 50.8749 753.435 54.9024 755.105 55.5901C757.757 56.5724 759.427 55.0989 759.427 51.759C759.427 47.8297 757.266 45.3739 753.926 45.3739C752.06 45.3739 751.568 45.865 751.568 47.8297Z" fill="black"/>
<path d="M249.6 50.2858C245.376 54.8045 236.143 71.5041 228.382 88.4001C219.148 108.44 219.05 115.414 227.793 119.245C232.311 121.308 236.83 121.013 236.83 118.754C236.83 118.066 235.062 115.709 232.803 113.646C229.266 110.11 228.873 109.324 229.266 106.082C229.856 101.563 238.205 84.4708 248.127 67.5747C254.217 57.0638 255.494 54.1169 255.494 50.5805C255.494 45.2759 254.316 45.1777 249.6 50.2858Z" fill="black"/>
<path d="M549.014 49.0091C544.692 53.626 539.682 62.3687 530.153 81.6223C524.358 93.312 520.723 102.055 520.134 105.395C519.053 111.583 517.383 112.86 508.051 113.744C502.943 114.334 501.96 114.137 501.469 112.664C500.585 110.405 503.041 105.395 510.016 95.8661C516.99 86.2393 517.678 83.2923 513.257 82.8994C510.507 82.6047 509.819 83.1941 503.827 92.2315C493.316 108.047 491.253 113.057 493.709 116.79C496.951 121.701 510.507 121.8 517.187 116.888C519.446 115.218 520.33 115.021 521.607 116.004C529.073 121.407 532.216 122.291 534.574 119.442C535.753 117.968 535.36 117.379 531.725 114.236C528.778 111.682 527.599 109.913 527.599 108.047C527.599 102.349 532.609 91.7403 547.049 66.8874C554.22 54.5101 555.399 51.6614 554.613 48.6161C553.926 45.6692 552.059 45.7674 549.014 49.0091Z" fill="black"/>
<path d="M819.154 57.3585C816.698 61.8772 811.688 71.4058 807.955 78.675C804.223 85.846 799.213 94.0976 796.757 96.8481C794.301 99.5986 791.452 103.135 790.274 104.707C788.702 106.868 786.934 107.752 782.022 108.734C778.486 109.422 772.002 110.797 767.68 111.779C760.116 113.449 759.527 113.449 757.071 111.878C753.633 109.618 753.731 105.493 757.464 97.7322C760.509 91.0523 771.315 79.0679 773.083 80.1485C773.672 80.5414 774.163 81.9167 774.163 83.1937C774.163 86.6319 776.128 87.3195 778.289 84.6672C779.566 83.0955 780.057 81.1308 779.861 78.3803C779.566 75.0404 779.173 74.2545 776.816 73.3704C774.458 72.5846 773.083 72.8793 768.662 75.2369C757.366 81.1308 747.542 95.8657 747.346 107.261C747.149 112.467 747.444 113.351 750.096 116.102C755.794 122.094 764.93 122.094 778.879 116.102L785.46 113.253L786.737 115.709C788.997 119.933 791.452 118.459 795.283 110.699C799.704 101.858 818.172 87.2213 822.789 88.9895C825.048 89.7753 824.655 91.5435 820.726 98.0269C815.126 107.064 814.341 109.422 815.519 113.449C816.011 115.414 817.681 117.968 819.154 119.147C821.413 120.915 822.69 121.112 827.111 120.719C832.808 120.129 842.73 115.709 844.302 112.958C846.463 109.422 843.614 109.029 835.755 111.681C827.504 114.53 822.985 114.628 822.494 111.878C822.297 110.895 824.655 105.296 827.602 99.3039C830.647 93.3117 833.103 87.6142 833.103 86.5336C833.103 81.7202 825.637 79.1662 818.761 81.7202C817.288 82.3096 816.011 82.6043 815.716 82.4079C815.519 82.2114 818.073 76.4157 821.413 69.6376C824.655 62.7613 827.602 55.3939 827.897 53.2327C828.388 49.5981 828.29 49.3034 826.03 49.3034C824.066 49.3034 822.887 50.6787 819.154 57.3585Z" fill="black"/>
<path d="M280.346 59.8145C276.908 63.4491 270.229 73.8618 270.229 75.5318C270.229 78.1841 272.979 76.7106 278.284 71.1113C283.981 65.1191 287.419 59.7163 286.437 58.1446C285.356 56.3764 282.999 57.064 280.346 59.8145Z" fill="black"/>
<path d="M342.331 72.2896C325.435 78.5765 320.72 85.3546 330.936 88.6945C332.901 89.2839 335.16 90.2662 335.848 90.8556C337.42 92.1327 337.321 97.9284 335.651 101.17C331.329 109.422 318.657 115.119 311.486 112.172C308.736 110.993 308.146 109.913 307.36 104.805C307.164 103.331 306.28 102.84 304.119 102.84C301.466 102.84 301.172 103.135 300.877 106.573C300.484 110.6 299.6 111.288 292.527 112.565C289.384 113.154 288.5 112.86 286.339 110.699C283.293 107.653 283.49 105.983 288.598 95.8655C292.92 87.3193 292.625 84.7652 287.026 82.2112C283.588 80.7377 282.507 80.6394 278.382 81.6218C268.853 84.0776 260.405 91.445 255.297 101.858C251.957 108.636 251.269 112.565 253.038 116.691C254.315 119.834 254.708 120.031 258.932 120.031C263.647 120.031 267.969 118.361 270.228 115.61C270.916 114.726 272.782 113.154 274.256 112.074L277.006 110.109L278.48 113.056C282.016 119.736 285.16 120.424 295.965 116.986L302.449 114.824L305.592 117.378C308.343 119.736 309.521 120.031 316.496 120.031C324.944 120.031 329.168 118.557 336.241 112.958C344.394 106.573 347.538 92.6238 342.429 85.6493C341.054 83.7829 339.974 81.9165 339.974 81.5235C339.974 81.0324 342.331 79.6571 345.278 78.3801C350.583 76.0225 352.94 73.5667 352.056 71.1109C351.467 69.4409 349.207 69.7356 342.331 72.2896ZM281.329 90.9539C282.311 93.4097 277.989 100.286 272.095 105.787C263.45 113.744 258.44 114.235 259.816 106.966C260.798 101.956 265.611 95.8655 271.407 92.5256C277.006 89.3821 280.543 88.7928 281.329 90.9539Z" fill="black"/>
<path d="M165.611 74.9425C159.619 78.086 150.68 87.4181 147.438 93.8032C144.098 100.581 142.723 109.029 144.491 113.155C147.831 121.21 160.7 122.389 175.729 115.906L183.784 112.369L184.374 114.727C185.258 118.165 188.5 120.031 193.509 120.031C206.181 120.031 217.085 106.966 217.184 91.9368C217.184 85.4534 216.889 84.5693 214.335 81.8188C209.718 76.9072 206.378 77.4966 199.305 84.7658C194.295 89.9721 184.668 103.037 183.588 106.279C183.097 107.85 158.342 113.352 155.395 112.664C152.153 111.878 151.368 110.601 151.368 106.279C151.368 99.9919 159.128 87.3198 166.201 82.2117C169.344 79.8542 171.505 80.3453 170.425 83.1941C170.13 83.7835 170.621 84.864 171.407 85.5517C173.568 87.4181 176.908 83.587 176.908 79.363C176.908 72.9779 172.586 71.3079 165.611 74.9425ZM209.718 90.1686C211.879 95.6696 208.244 105.002 202.449 108.833C198.126 111.682 193.313 111.78 192.822 108.931C192.331 106.672 197.439 95.8661 200.877 91.7403C203.922 88.3022 208.637 87.4181 209.718 90.1686Z" fill="black"/>
<path d="M615.517 74.7457C609.525 77.4963 600.192 84.9619 592.727 92.9188C586.44 99.5986 585.065 101.956 574.848 123.567C563.159 148.126 561.587 153.43 565.222 155.788C566.499 156.574 567.481 156.574 569.446 155.395C571.509 154.216 573.375 150.581 578.581 137.222C582.216 127.988 585.654 119.54 586.342 118.459C587.324 116.691 588.601 116.298 595.084 115.905C604.809 115.316 611.391 112.074 619.053 104.314C626.322 96.8481 630.743 88.1054 630.743 81.1309C630.743 77.791 630.252 75.4334 629.171 74.451C627.108 72.2899 620.428 72.4864 615.517 74.7457ZM623.474 83.1938C624.849 86.7301 612.963 101.367 605.595 105.1C603.434 106.18 599.603 107.359 597.049 107.752C593.022 108.341 592.432 108.243 592.432 106.77C592.432 104.314 598.523 96.4552 604.711 90.7577C612.963 83.1938 622.098 79.4609 623.474 83.1938Z" fill="black"/>
<path d="M703.827 84.962C699.013 89.9719 692.923 96.5535 690.27 99.6969C683.984 106.966 682.314 107.064 683.198 100.09C684.868 87.3196 685.064 80.738 683.787 79.2645C682.117 77.2999 679.17 77.3981 677.991 79.5592C677.5 80.4433 676.321 88.6949 675.437 97.8305C673.866 114.039 673.866 114.53 675.732 116.986C678.777 121.21 681.626 120.719 688.011 115.119C696.459 107.457 716.204 82.408 716.204 79.1663C716.204 78.4787 715.32 77.3981 714.337 76.9069C712.766 76.0229 711.194 77.2016 703.827 84.962Z" fill="black"/>
<path d="M655.496 80.8359C651.272 83.5864 642.431 94.392 638.698 101.367C635.064 108.145 634.671 113.646 637.716 117.477C639.484 119.638 640.467 120.031 645.084 120.031C653.924 120.031 661.292 114.923 666.302 105.296C668.168 101.661 668.561 99.4019 668.561 92.2309C668.561 83.8811 668.463 83.39 665.811 81.1306C662.471 78.2818 659.72 78.1836 655.496 80.8359ZM661.587 90.168C662.667 92.9185 662.176 98.4196 660.801 101.268C658.443 105.787 651.763 111.19 648.423 111.19C645.771 111.19 645.476 110.895 645.476 108.243C645.476 104.903 646.655 102.054 651.174 94.1956C654.121 89.1857 654.71 88.5963 657.657 88.5963C659.818 88.5963 661.194 89.1857 661.587 90.168Z" fill="black"/>
<path d="M124.745 94.6869C120.423 101.269 116.396 108.341 115.806 110.502C114.824 113.744 114.922 114.53 116.69 116.888C118.459 119.245 119.441 119.54 124.942 119.834C128.38 120.031 132.702 119.834 134.569 119.54C137.81 118.95 142.526 115.218 142.526 113.155C142.526 111.878 138.596 111.878 133.194 113.253C127.3 114.726 123.861 113.842 123.861 110.699C123.861 108.538 125.237 106.278 136.042 91.1505C140.364 85.0601 140.266 82.7025 135.649 82.7025C132.899 82.7025 132.015 83.6848 124.745 94.6869Z" fill="black"/>
<path d="M566.4 83.4882C563.06 85.944 548.227 109.716 548.227 112.762C548.227 113.842 549.307 116.003 550.682 117.477C552.745 119.736 553.728 120.031 559.72 120.031C566.891 120.031 574.258 117.477 575.339 114.628C576.419 111.779 574.455 111.19 569.445 112.663C562.961 114.628 558.148 114.53 557.362 112.467C556.576 110.502 560.014 104.019 565.908 96.062C571.606 88.5963 573.079 85.8458 572.392 84.0776C571.802 82.6041 568.07 82.2112 566.4 83.4882Z" fill="black"/>
<path d="M735.262 84.8634C731.726 88.6945 722.983 102.349 720.429 107.85C718.268 112.663 718.169 113.253 719.545 115.905C721.411 119.638 722.688 120.031 731.234 120.031C738.798 120.031 743.513 118.066 745.675 114.235C746.559 112.467 746.46 112.172 744.594 112.172C743.415 112.172 739.682 112.663 736.146 113.351C730.743 114.333 729.663 114.235 728.386 112.958C727.01 111.681 727.01 111.092 728.287 107.948C729.171 106.082 732.708 100.482 736.342 95.5708C739.977 90.5609 742.728 85.8458 742.531 84.9617C742.04 82.2112 737.619 82.2112 735.262 84.8634Z" fill="black"/>
</svg>
