<svg xmlns="http://www.w3.org/2000/svg" version="1.1" xmlns:xlink="http://www.w3.org/1999/xlink" xmlns:svgjs="http://svgjs.dev/svgjs" width="400" height="400"><svg width="400" height="400" viewBox="0 0 400 400" fill="none" xmlns="http://www.w3.org/2000/svg">
<path d="M399.999 200C400.039 194.157 398.259 188.446 394.907 183.66C391.555 178.874 386.797 175.249 381.293 173.289L267.933 132.067L226.711 18.7068C224.716 13.2244 221.083 8.48843 216.305 5.14182C211.526 1.7952 205.834 0 200 0C194.166 0 188.473 1.7952 183.695 5.14182C178.916 8.48843 175.283 13.2244 173.289 18.7068L132.067 132.067L18.7068 173.289C13.2244 175.283 8.4884 178.916 5.14178 183.695C1.79516 188.473 0 194.166 0 200C0 205.834 1.79516 211.527 5.14178 216.305C8.4884 221.084 13.2244 224.717 18.7068 226.711L132.067 267.933L173.289 381.293C175.283 386.776 178.916 391.512 183.695 394.858C188.473 398.205 194.166 400 200 400C205.834 400 211.526 398.205 216.305 394.858C221.083 391.512 224.716 386.776 226.711 381.293L267.933 267.933L381.293 226.711C386.797 224.751 391.555 221.126 394.906 216.34C398.258 211.553 400.037 205.843 399.998 200H399.999Z" fill="#CA678E"></path>
</svg><style>@media (prefers-color-scheme: light) { :root { filter: none; } }
@media (prefers-color-scheme: dark) { :root { filter: none; } }
</style></svg>